<svg width="22" height="22" viewBox="0 0 22 22" fill="none" xmlns="http://www.w3.org/2000/svg">
<path d="M2.33367 4.49933H0.166992V19.666C0.166992 20.8577 1.14199 21.8327 2.33367 21.8327H17.5003V19.666H2.33367V4.49933ZM19.667 0.166016H6.667C5.47532 0.166016 4.50032 1.14102 4.50032 2.33269V15.3327C4.50032 16.5243 5.47532 17.4993 6.667 17.4993H19.667C20.8587 17.4993 21.8337 16.5243 21.8337 15.3327V2.33269C21.8337 1.14102 20.8587 0.166016 19.667 0.166016ZM18.5837 9.91601H14.2503V14.2493H12.0837V9.91601H7.75032V7.74933H12.0837V3.41601H14.2503V7.74933H18.5837V9.91601Z" fill="#7286A5"/>
</svg>
