<svg width="77" height="77" viewBox="0 0 77 77" fill="none" xmlns="http://www.w3.org/2000/svg">
<g clip-path="url(#clip0)">
<path d="M63.3417 23.3108C61.6178 20.3405 58.3463 18.1976 52.9367 18.1976H45.5677V15.3402C45.5677 11.6086 42.5318 8.57276 38.8002 8.57276H38.1987C34.4671 8.57276 31.4312 11.6086 31.4312 15.3402V18.1976H24.0623C18.6536 18.1976 15.3814 20.3399 13.6572 23.3108H63.3417ZM35.9429 15.3402C35.9429 14.0964 36.9548 13.0844 38.1987 13.0844H38.8002C40.0441 13.0844 41.0561 14.0964 41.0561 15.3402V18.1976H35.9429V15.3402Z" fill="#2B2B2B" fill-opacity="0.8"/>
<path d="M74.8191 29.8592C73.4489 28.5457 71.6591 27.8223 69.7799 27.8223C66.2031 27.8223 10.7896 27.8223 7.21861 27.8223C3.30522 27.8223 0 30.9878 0 34.8905C0 38.7883 3.30086 41.9588 7.21861 41.9588H12.1814V61.6596C12.1814 65.3911 15.2173 68.427 18.9488 68.427H58.0496C61.7812 68.427 64.8171 65.3911 64.8171 61.6596V41.9588H69.7799C71.6591 41.9588 73.4487 41.2354 74.8191 39.9219C77.7265 37.1346 77.7274 32.6474 74.8191 29.8592ZM12.1814 37.4471H7.21861C5.77654 37.4471 4.51163 36.2525 4.51163 34.8905C4.51163 33.5286 5.77654 32.334 7.21861 32.334H12.1814V37.4471ZM69.7799 37.4471H64.8171V32.334H69.7799C71.222 32.334 72.4869 33.5286 72.4869 34.8905C72.4869 36.2525 71.222 37.4471 69.7799 37.4471Z" fill="#2B2B2B" fill-opacity="0.8"/>
</g>
<defs>
<clipPath id="clip0">
<rect width="77" height="77" fill="white"/>
</clipPath>
</defs>
</svg>
