<svg width="20" height="18" viewBox="0 0 20 18" fill="none" xmlns="http://www.w3.org/2000/svg">
<path d="M18.414 1.76085C17.9059 1.201 17.2874 0.755065 16.5986 0.451803C15.9097 0.148541 15.1656 -0.00531702 14.4143 0.000147268C13.2742 -0.00496826 12.1662 0.381879 11.2719 1.09728C10.7869 1.48076 10.3588 1.93272 10.0008 2.43932C9.64288 1.93269 9.21482 1.48072 8.72978 1.09728C7.83592 0.382233 6.72851 -0.00459287 5.58896 0.000147268C4.83741 -0.00544604 4.09307 0.148346 3.40389 0.451608C2.71471 0.754871 2.09602 1.20087 1.58768 1.76085C0.540583 2.94738 -0.0259923 4.48955 0.000916349 6.07988C0.0473702 7.91207 0.752888 9.66426 1.98519 11.0078C3.51223 12.7112 5.17254 14.2873 6.94998 15.7207C7.63868 16.3131 8.42223 16.9866 9.22708 17.7065C9.4411 17.8957 9.71572 18 10 18C10.2843 18 10.5589 17.8957 10.7729 17.7065C11.5827 16.9899 12.363 16.3181 13.0517 15.7207C14.8292 14.2868 16.4896 12.7102 18.0165 11.0062C19.2482 9.66234 19.9531 7.91022 19.9991 6.07822C20.026 4.48789 19.4594 2.94573 18.4123 1.7592L18.414 1.76085Z" fill="#7286A5"/>
</svg>
