<svg width="71" height="62" viewBox="0 0 71 62" fill="none" xmlns="http://www.w3.org/2000/svg">
<path d="M65.3695 6.06515C63.5658 4.13677 61.3704 2.60078 58.9249 1.55621C56.4793 0.511642 53.8379 -0.0183142 51.1708 0.000507253C47.1234 -0.0171129 43.1899 1.31536 40.0151 3.77951C38.2933 5.10039 36.7737 6.65714 35.5029 8.40209C34.2322 6.65704 32.7126 5.10027 30.9907 3.77951C27.8175 1.31658 23.8862 -0.0158199 19.8408 0.000507253C17.1728 -0.0187586 14.5304 0.510971 12.0838 1.55554C9.63723 2.60011 7.44085 4.13633 5.63627 6.06515C1.91907 10.1521 -0.0922725 15.464 0.00325304 20.9418C0.168164 27.2527 2.67275 33.288 7.04743 37.9159C12.4684 43.7831 18.3625 49.2117 24.6724 54.1491C27.1173 56.1897 29.8989 58.5095 32.7561 60.9889C33.5159 61.6408 34.4908 62 35.5 62C36.5092 62 37.4841 61.6408 38.2439 60.9889C41.1185 58.5209 43.8886 56.2068 46.3334 54.1491C52.6438 49.2102 58.5379 43.7796 63.9584 37.9102C68.3309 33.2814 70.8334 27.2463 70.9967 20.9361C71.0923 15.4583 69.0809 10.1464 65.3637 6.05945L65.3695 6.06515Z" fill="#2B2B2B" fill-opacity="0.8"/>
</svg>
