<svg width="77" height="77" viewBox="0 0 77 77" fill="none" xmlns="http://www.w3.org/2000/svg">
<path d="M12.8337 19.25H6.41699V64.1667C6.41699 67.6959 9.30449 70.5834 12.8337 70.5834H57.7503V64.1667H12.8337V19.25ZM64.167 6.41671H25.667C22.1378 6.41671 19.2503 9.30421 19.2503 12.8334V51.3334C19.2503 54.8625 22.1378 57.75 25.667 57.75H64.167C67.6962 57.75 70.5837 54.8625 70.5837 51.3334V12.8334C70.5837 9.30421 67.6962 6.41671 64.167 6.41671ZM60.9587 35.2917H48.1253V48.125H41.7087V35.2917H28.8753V28.875H41.7087V16.0417H48.1253V28.875H60.9587V35.2917Z" fill="#2B2B2B" fill-opacity="0.8"/>
</svg>
