<svg width="22" height="22" viewBox="0 0 22 22" fill="none" xmlns="http://www.w3.org/2000/svg">
<g clip-path="url(#clip0)">
<path d="M13.7499 10.0833C13.2429 10.0833 12.8333 9.67256 12.8333 9.16669V5.49995C12.8333 4.99492 12.4225 4.58334 11.9165 4.58334H9.16652V18.3332C9.16652 19.1161 8.66787 19.8154 7.91806 20.0758L7.64667 20.1666H11.9165C12.4225 20.1666 12.8333 19.755 12.8333 19.2498V16.4998C12.8333 15.994 13.2429 15.5833 13.7499 15.5833C14.2567 15.5833 14.6665 15.994 14.6665 16.4998V19.2498C14.6665 20.766 13.4326 21.9998 11.9165 21.9998H2.06248C2.02757 21.9998 1.99836 21.9842 1.96446 21.9796C1.92031 21.9833 1.87818 21.9998 1.83337 21.9998C0.822272 21.9998 0 21.1777 0 20.1666V3.66674C0 2.88391 0.498665 2.1845 1.24843 1.92418L6.765 0.085266C6.95196 0.0275269 7.13794 0 7.3333 0C8.34442 0 9.16652 0.822271 9.16652 1.83337V2.74997H11.9165C13.4326 2.74997 14.6665 3.9838 14.6665 5.49995V9.16669C14.6665 9.67256 14.2567 10.0833 13.7499 10.0833Z" fill="#7286A5"/>
<path d="M21.7312 13.4815L18.0645 17.1481C17.8025 17.4103 17.4082 17.4891 17.0655 17.3471C16.7236 17.205 16.4999 16.8705 16.4999 16.5V13.7501H12.8333C12.3272 13.7501 11.9165 13.3395 11.9165 12.8335C11.9165 12.3274 12.3272 11.9169 12.8333 11.9169H16.4999V9.1669C16.4999 8.79646 16.7236 8.46193 17.0655 8.31977C17.4082 8.17778 17.8025 8.25667 18.0645 8.51865L21.7312 12.1854C22.0896 12.5438 22.0896 13.1232 21.7312 13.4815Z" fill="#7286A5"/>
</g>
<defs>
<clipPath id="clip0">
<rect width="22" height="22" fill="white"/>
</clipPath>
</defs>
</svg>
