<svg width="50" height="50" viewBox="0 0 50 50" fill="none" xmlns="http://www.w3.org/2000/svg">
<g clip-path="url(#clip0)">
<path d="M31.2497 22.9161C30.0976 22.9161 29.1665 21.9826 29.1665 20.8329V12.4994C29.1665 11.3516 28.233 10.4162 27.0829 10.4162H20.833V41.6659C20.833 43.4451 19.6997 45.0346 17.9956 45.6263L17.3788 45.8327H27.0829C28.233 45.8327 29.1665 44.8973 29.1665 43.7491V37.4991C29.1665 36.3494 30.0976 35.416 31.2497 35.416C32.4017 35.416 33.3329 36.3494 33.3329 37.4991V43.7491C33.3329 47.1949 30.5287 49.999 27.0829 49.999H4.68745C4.60811 49.999 4.54173 49.9635 4.46467 49.9532C4.36435 49.9616 4.2686 49.999 4.16675 49.999C1.8688 49.999 0 48.1306 0 45.8327V8.33302C0 6.55386 1.13333 4.96429 2.83734 4.37264L15.375 0.193298C15.7999 0.0620728 16.2226 -0.000488281 16.6666 -0.000488281C18.9646 -0.000488281 20.833 1.86831 20.833 4.16626V6.24945H27.0829C30.5287 6.24945 33.3329 9.05361 33.3329 12.4994V20.8329C33.3329 21.9826 32.4017 22.9161 31.2497 22.9161Z" fill="#2B2B2B" fill-opacity="0.8"/>
<path d="M49.3892 30.6389L41.0557 38.972C40.4603 39.5679 39.5642 39.7472 38.7852 39.4244C38.0082 39.1013 37.4997 38.3411 37.4997 37.4992V31.2493H29.1666C28.0165 31.2493 27.083 30.3162 27.083 29.1661C27.083 28.016 28.0165 27.0829 29.1666 27.0829H37.4997V20.833C37.4997 19.9911 38.0082 19.2308 38.7852 18.9077C39.5642 18.585 40.4603 18.7643 41.0557 19.3597L49.3892 27.6932C50.2037 28.5077 50.2037 29.8245 49.3892 30.6389Z" fill="#2B2B2B" fill-opacity="0.8"/>
</g>
<defs>
<clipPath id="clip0">
<rect width="50" height="50" fill="white" transform="matrix(1 0 0 -1 0 50)"/>
</clipPath>
</defs>
</svg>
