<svg width="27" height="19" viewBox="0 0 27 19" fill="none" xmlns="http://www.w3.org/2000/svg">
<g clip-path="url(#clip0)">
<path d="M20.9924 1.9006H14.1329V1.26707H14.6714C14.8393 1.26707 15.0003 1.20032 15.119 1.08151C15.2377 0.962697 15.3044 0.801553 15.3044 0.633529C15.3044 0.465506 15.2377 0.304373 15.119 0.185562C15.0003 0.0667514 14.8393 0 14.6714 0H12.5714C12.4035 0 12.2425 0.0667514 12.1238 0.185562C12.0051 0.304373 11.9384 0.465506 11.9384 0.633529C11.9384 0.801553 12.0051 0.962697 12.1238 1.08151C12.2425 1.20032 12.4035 1.26707 12.5714 1.26707H12.8714V1.9006H6.24589C5.61699 1.89716 5.01106 2.13701 4.55463 2.57005C4.0982 3.00308 3.82655 3.59584 3.79639 4.22456V4.85509H23.2034V4.22456C23.2153 3.92553 23.167 3.62715 23.0615 3.34713C22.956 3.0671 22.7954 2.81113 22.5892 2.5944C22.383 2.37766 22.1354 2.20458 21.8611 2.0854C21.5868 1.96623 21.2914 1.90338 20.9924 1.9006V1.9006Z" fill="#7286A5"/>
<path d="M26.4705 6.33372H23.2035V5.7002H3.7965V6.33372H0.7695C0.42 6.33372 0 6.62348 0 6.97328V7.3786C0.0309805 7.55991 0.125412 7.72427 0.266397 7.84227C0.407383 7.96027 0.585721 8.02421 0.7695 8.02265H3.09C3.5505 8.02265 3.7965 8.38595 3.7965 8.84683V16.6804C3.82669 17.3087 4.0985 17.901 4.55505 18.3333C5.0116 18.7657 5.61751 19.0045 6.246 18.9999H21C21.2987 18.9975 21.5938 18.9351 21.8679 18.8163C22.142 18.6975 22.3894 18.5248 22.5955 18.3085C22.8016 18.0921 22.9622 17.8365 23.0677 17.5569C23.1731 17.2772 23.2214 16.9791 23.2095 16.6804V8.85286C23.2357 8.62189 23.3474 8.40913 23.5226 8.25655C23.6978 8.10398 23.9238 8.02266 24.156 8.02865H26.4765C26.826 8.02865 27.006 7.72839 27.006 7.3846V6.97928C27 6.62348 26.8185 6.33372 26.4705 6.33372Z" fill="#7286A5"/>
</g>
<defs>
<clipPath id="clip0">
<rect width="27" height="19" fill="white"/>
</clipPath>
</defs>
</svg>
